<?xml version="1.0" encoding="UTF-8"?>
<svg xmlns="http://www.w3.org/2000/svg" viewBox="0 0 280 282" width="280" height="282">
  <!-- 녹색 로고 도형 (투명 배경) -->
  <g transform="translate(0,282) scale(0.1,-0.1)" fill="#669900" stroke="none">
    <path d="M0 2405 l0 -415 707 0 708 1 278 -278 278 -277 -313 -313 -313 -313 -292 0 -293 0 0 525 0 525 -380 0 -380 0 0 -930 0 -930 878 0 877 0 523 523 522 522 0 888 0 887 -395 0 -395 0 0 -162 0 -163 -163 163 -162 162 -843 0 -842 0 0 -415z"/>
    <path d="M2370 425 l-425 -425 428 0 427 0 0 425 c0 234 -1 425 -3 425 -1 0 -193 -191 -427 -425z"/>
  </g>
</svg>